<?xml version="1.0" encoding="UTF-8"?>
        <svg xmlns="http://www.w3.org/2000/svg" xmlns:xlink="http://www.w3.org/1999/xlink"
             width="130" height="130" viewBox="0 -1300 1300 1300">

<defs>

</defs>

<rect fill="#84A1AE" height="70" rx="15" width="70" x="165" y="-235" />
<rect fill="#84A1AE" height="70" rx="15" width="70" x="165" y="-335" />
<rect fill="#84A1AE" height="70" rx="15" width="70" x="165" y="-435" />
<rect fill="#84A1AE" height="70" rx="15" width="70" x="165" y="-535" />
<rect fill="#84A1AE" height="70" rx="15" width="70" x="165" y="-635" />
<rect fill="#84A1AE" height="70" rx="15" width="70" x="165" y="-735" />
<rect fill="#84A1AE" height="70" rx="15" width="70" x="165" y="-835" />
<rect fill="#84A1AE" height="70" rx="15" width="70" x="165" y="-935" />
<rect fill="#84A1AE" height="70" rx="15" width="70" x="165" y="-1035" />
<rect fill="#84A1AE" height="70" rx="15" width="70" x="165" y="-1135" />
<rect fill="#84A1AE" height="70" rx="15" width="70" x="265" y="-235" />
<rect fill="#84A1AE" height="70" rx="15" width="70" x="265" y="-335" />
<rect fill="#84A1AE" height="70" rx="15" width="70" x="265" y="-735" />
<rect fill="#84A1AE" height="70" rx="15" width="70" x="265" y="-1035" />
<rect fill="#84A1AE" height="70" rx="15" width="70" x="265" y="-1135" />
<rect fill="#84A1AE" height="70" rx="15" width="70" x="365" y="-235" />
<rect fill="#84A1AE" height="70" rx="15" width="70" x="365" y="-635" />
<rect fill="#84A1AE" height="70" rx="15" width="70" x="365" y="-735" />
<rect fill="#84A1AE" height="70" rx="15" width="70" x="365" y="-835" />
<rect fill="#84A1AE" height="70" rx="15" width="70" x="365" y="-1135" />
<rect fill="#84A1AE" height="70" rx="15" width="70" x="465" y="-235" />
<rect fill="#84A1AE" height="70" rx="15" width="70" x="465" y="-535" />
<rect fill="#84A1AE" height="70" rx="15" width="70" x="465" y="-735" />
<rect fill="#84A1AE" height="70" rx="15" width="70" x="465" y="-1135" />
<rect fill="#84A1AE" height="70" rx="15" width="70" x="565" y="-235" />
<rect fill="#84A1AE" height="70" rx="15" width="70" x="565" y="-835" />
<rect fill="#84A1AE" height="70" rx="15" width="70" x="565" y="-1035" />
<rect fill="#84A1AE" height="70" rx="15" width="70" x="565" y="-1135" />
<rect fill="#84A1AE" height="70" rx="15" width="70" x="665" y="-235" />
<rect fill="#84A1AE" height="70" rx="15" width="70" x="665" y="-335" />
<rect fill="#84A1AE" height="70" rx="15" width="70" x="665" y="-435" />
<rect fill="#84A1AE" height="70" rx="15" width="70" x="665" y="-535" />
<rect fill="#84A1AE" height="70" rx="15" width="70" x="665" y="-735" />
<rect fill="#84A1AE" height="70" rx="15" width="70" x="665" y="-1035" />
<rect fill="#84A1AE" height="70" rx="15" width="70" x="665" y="-1135" />
<rect fill="#84A1AE" height="70" rx="15" width="70" x="765" y="-235" />
<rect fill="#84A1AE" height="70" rx="15" width="70" x="765" y="-535" />
<rect fill="#84A1AE" height="70" rx="15" width="70" x="765" y="-635" />
<rect fill="#84A1AE" height="70" rx="15" width="70" x="765" y="-835" />
<rect fill="#84A1AE" height="70" rx="15" width="70" x="765" y="-935" />
<rect fill="#84A1AE" height="70" rx="15" width="70" x="765" y="-1035" />
<rect fill="#84A1AE" height="70" rx="15" width="70" x="765" y="-1135" />
<rect fill="#84A1AE" height="70" rx="15" width="70" x="865" y="-235" />
<rect fill="#84A1AE" height="70" rx="15" width="70" x="865" y="-435" />
<rect fill="#84A1AE" height="70" rx="15" width="70" x="865" y="-835" />
<rect fill="#84A1AE" height="70" rx="15" width="70" x="865" y="-935" />
<rect fill="#84A1AE" height="70" rx="15" width="70" x="865" y="-1035" />
<rect fill="#84A1AE" height="70" rx="15" width="70" x="865" y="-1135" />
<rect fill="#84A1AE" height="70" rx="15" width="70" x="965" y="-235" />
<rect fill="#84A1AE" height="70" rx="15" width="70" x="965" y="-835" />
<rect fill="#84A1AE" height="70" rx="15" width="70" x="965" y="-935" />
<rect fill="#84A1AE" height="70" rx="15" width="70" x="965" y="-1035" />
<rect fill="#84A1AE" height="70" rx="15" width="70" x="965" y="-1135" />
<rect fill="#84A1AE" height="70" rx="15" width="70" x="1065" y="-235" />
<rect fill="#84A1AE" height="70" rx="15" width="70" x="1065" y="-335" />
<rect fill="#84A1AE" height="70" rx="15" width="70" x="1065" y="-435" />
<rect fill="#84A1AE" height="70" rx="15" width="70" x="1065" y="-535" />
<rect fill="#84A1AE" height="70" rx="15" width="70" x="1065" y="-635" />
<rect fill="#84A1AE" height="70" rx="15" width="70" x="1065" y="-735" />
<rect fill="#84A1AE" height="70" rx="15" width="70" x="1065" y="-835" />
<rect fill="#84A1AE" height="70" rx="15" width="70" x="1065" y="-935" />
<rect fill="#84A1AE" height="70" rx="15" width="70" x="1065" y="-1035" />
<rect fill="#84A1AE" height="70" rx="15" width="70" x="1065" y="-1135" />
<circle cx="1000" cy="-700" fill="#c1433c" r="35" />
<circle cx="300" cy="-900" fill="#2e6f9e" r="35" />
<circle cx="900" cy="-300" fill="#6e81af" r="35" />
<circle cx="700" cy="-600" fill="#00b9c8" r="35" />
<circle cx="300" cy="-400" fill="#72D5C8" r="35" />
<circle cx="900" cy="-600" fill="none" r="35" stroke="#c1433c" stroke-width="10" />
<circle cx="300" cy="-800" fill="none" r="35" stroke="#2e6f9e" stroke-width="10" />
<circle cx="800" cy="-300" fill="none" r="35" stroke="#6e81af" stroke-width="10" />
<circle cx="500" cy="-600" fill="none" r="35" stroke="#00b9c8" stroke-width="10" />
<circle cx="400" cy="-500" fill="none" r="35" stroke="#72D5C8" stroke-width="10" />
</svg>